<svg id="social-alt_svg__Layer_1" xmlns="http://www.w3.org/2000/svg" viewBox="0 0 466.71 213.55" class="w-[108px] max-h-[80px] h-auto">
<defs><style>.social-alt_svg__cls-1{fill:#000;stroke-width:0}</style></defs><path class="social-alt_svg__cls-1" d="M305.8 132.47H180.75c-6.9 0-12.5 5.61-12.5 12.5v2.34c0 6.9 5.61 12.5 12.5 12.5H305.8c6.9 0 12.5-5.61 12.5-12.5v-2.34c0-6.9-5.61-12.5-12.5-12.5Zm6.73 14.85c0 3.71-3.02 6.73-6.73 6.73H180.75c-3.71 0-6.73-3.02-6.73-6.73v-2.34c0-3.71 3.02-6.73 6.73-6.73H305.8c3.71 0 6.73 3.02 6.73 6.73v2.34ZM297.41 109.98c-6.05 0-11.78 2.64-15.72 7.23-2.84 3.32-6.97 5.22-11.33 5.22s-8.49-1.9-11.34-5.21a20.702 20.702 0 0 0-31.44 0c-2.84 3.32-6.98 5.22-11.34 5.22s-8.49-1.9-11.33-5.21a20.702 20.702 0 0 0-31.44 0c-1.04 1.21-.9 3.03.31 4.07.54.47 1.21.7 1.88.7.81 0 1.62-.34 2.19-1.01 2.84-3.32 6.98-5.22 11.34-5.22s8.49 1.9 11.33 5.21c3.94 4.6 9.67 7.24 15.72 7.24s11.78-2.64 15.72-7.23c2.84-3.32 6.98-5.22 11.34-5.22s8.49 1.9 11.34 5.21c3.94 4.6 9.67 7.23 15.72 7.23s11.78-2.64 15.72-7.23c2.84-3.32 6.97-5.22 11.33-5.22s8.5 1.9 11.34 5.22c.57.67 1.38 1.01 2.19 1.01.67 0 1.33-.23 1.88-.7a2.884 2.884 0 0 0 .31-4.07c-3.94-4.6-9.67-7.23-15.72-7.23ZM19.54 139.6c0 6.6-3.26 9.91-9.77 9.92-6.52 0-9.77-3.31-9.77-9.92v-31.17c0-6.6 3.26-9.9 9.77-9.9s9.77 3.3 9.77 9.9v6.09h-5.79v-6.09c0-2.79-1.32-4.19-3.96-4.21h-.05c-2.64 0-3.96 1.4-3.96 4.21v31.17c0 2.81 1.33 4.21 3.98 4.21s3.98-1.4 3.98-4.21v-12.73h-3.71v-5.71h9.5v18.44h.01ZM24.45 99.33h9.92c6 .02 9 3.33 9 9.95v7.64c0 4.13-2 6.93-5.99 8.4l8.14 23.38h-6.39l-6.64-22.48-2.26.3v22.18h-5.79V99.33Zm5.79 5.69v16.14h2.46c1.12 0 1.92-.08 2.41-.25 1.65-.68 2.48-2.01 2.48-3.98v-7.64c0-2.84-1.32-4.26-3.96-4.26h-3.39ZM69.7 131.51l2.31 17.19h-5.89l-1.43-10.8h-8.85l-1.45 10.8h-5.84l2.26-17.09 5.09-32.28h8.75l5.06 32.18Zm-5.76.68-3.68-27.89-3.68 27.89h7.37ZM87.59 148.7h-8.75l-5.09-32.23-2.26-17.14h5.84l5.86 44.41 5.86-44.41h5.89l-2.31 17.19-5.06 32.18h.02ZM99.07 99.33h5.79v49.37h-5.79V99.33ZM128.69 99.33v5.69h-6.87v43.68h-5.79v-43.68h-6.89v-5.69h19.55ZM137.88 99.33l5.61 22.28 5.64-22.28h6.14l-8.87 28.59v20.77h-5.79v-20.77l-8.85-28.59h6.12ZM338.75 108.43c0-6.6 3.26-9.9 9.77-9.9s9.77 3.3 9.77 9.9v6.09h-5.79v-6.09c0-2.79-1.32-4.19-3.96-4.21h-.05c-2.64 0-3.96 1.4-3.96 4.21v4.64c0 2.52 2.41 5.51 7.22 8.95 4.36 3.12 6.54 6.84 6.54 11.15v6.44c0 6.62-3.25 9.92-9.75 9.92-6.53-.02-9.8-3.32-9.8-9.92v-6.09h5.79v6.09c0 2.81 1.34 4.21 4.01 4.21s3.96-1.4 3.96-4.21v-5.81c0-2.72-2.41-5.81-7.22-9.25-4.36-3.12-6.54-6.9-6.54-11.33v-4.79ZM382.54 139.6c0 6.6-3.26 9.91-9.77 9.92-6.52 0-9.77-3.31-9.77-9.92v-31.17c0-6.6 3.26-9.9 9.77-9.9s9.77 3.3 9.77 9.9v31.17Zm-5.79-31.17c0-2.79-1.32-4.19-3.96-4.21h-.05c-2.64 0-3.96 1.4-3.96 4.21v31.17c0 2.81 1.33 4.21 3.98 4.21s3.98-1.4 3.98-4.21v-31.17ZM406.79 139.6c0 6.6-3.26 9.91-9.77 9.92-6.52 0-9.77-3.31-9.77-9.92v-31.17c0-6.6 3.26-9.9 9.77-9.9s9.77 3.3 9.77 9.9v6.09H401v-6.09c0-2.79-1.32-4.19-3.96-4.21h-.05c-2.64 0-3.96 1.4-3.96 4.21v31.17c0 2.81 1.33 4.21 3.98 4.21s3.98-1.4 3.98-4.21v-6.09h5.79v6.09ZM411.66 99.33h5.79v49.37h-5.79V99.33ZM442.78 131.51l2.31 17.19h-5.89l-1.43-10.8h-8.85l-1.45 10.8h-5.84l2.26-17.09 5.09-32.28h8.75l5.06 32.18Zm-5.76.68-3.68-27.89-3.68 27.89h7.37-.01ZM449.22 148.7V99.33h5.79v43.68h11.7v5.69h-17.49ZM374.72 26.31c-.6-1.32-1.14-2.64-1.67-3.93-1.88-4.62-3.66-9.01-7.67-10.39-1.11-4.09-5.37-6.16-9.86-8.34-1.25-.61-2.54-1.23-3.81-1.92-7.66-4.15-12.37.43-13.92 1.94l-.1.1c-.89.81-1.36 1.25-2.19 2.03-.58.55-1.35 1.27-2.58 2.43-4.38 4.09-6.05 6.94-5.6 9.51.21 1.22 1.02 13.09 1.52 21.06-4.14 3.66-18.87 16.74-22.65 20.78-1.41.41-4.17 1.25-6.61 2.33 1.06 1.3 2.05 2.64 2.99 4 1.3-.51 2.78-1.02 4.2-1.45l2.35 2.51c-.77 2.03-1.71 4.17-2.54 5.68a57.27 57.27 0 0 1 2.31 5.12c2.15-2.27 4.26-7.72 5.05-9.89 4.28-3.49 18.32-17.32 22.25-21.2 7.93 1.04 19.72 2.64 20.91 2.93 2.54.62 5.48-.86 9.86-4.95l4.96-4.64c1.57-1.45 6.36-5.87 2.78-13.67l.02-.04Zm-62.6 36.75-1.26-1.34c4.12-4.08 14.57-13.44 20.32-18.53l.12.13c.07.11.16.22.25.32s.19.19.3.27l.12.13c-5.47 5.39-15.51 15.19-19.85 19.03Zm21.55-24.73c-.33-5.25-1.26-19.53-1.57-21.4.02-.16.26-1.55 4.13-5.17 1.24-1.16 2.02-1.89 2.6-2.45.82-.77 1.27-1.2 2.14-1.99.02-.02.04-.04.06-.05l.14-.14c1.48-1.44 3.71-3.61 8.23-1.15 1.37.74 2.71 1.39 4 2.02 3.92 1.91 6.54 3.27 7.23 5.12l-26.97 25.22Zm34.98-1.9-4.99 4.66c-3.87 3.62-5.27 3.77-5.44 3.78-1.83-.43-16.03-2.31-21.25-3l26.97-25.22c1.8.81 2.98 3.51 4.62 7.55.54 1.33 1.1 2.71 1.75 4.13 2.12 4.61-.16 6.71-1.66 8.1ZM179.77 72.62c-.83-1.51-1.77-3.65-2.53-5.68l2.35-2.51c1.42.43 2.9.94 4.2 1.45.94-1.36 1.93-2.7 2.99-4-2.44-1.07-5.2-1.92-6.61-2.33-3.77-4.04-18.5-17.12-22.65-20.78.51-7.97 1.31-19.83 1.52-21.06.45-2.57-1.22-5.41-5.6-9.51-1.23-1.15-2-1.88-2.58-2.43-.83-.79-1.29-1.22-2.19-2.03l-.1-.1c-1.55-1.51-6.26-6.09-13.92-1.94-1.27.69-2.56 1.32-3.81 1.92-4.48 2.18-8.75 4.26-9.86 8.34-4.01 1.38-5.79 5.77-7.67 10.39-.52 1.28-1.06 2.61-1.67 3.93-3.58 7.81 1.2 12.22 2.78 13.67l4.96 4.64c4.38 4.09 7.33 5.57 9.86 4.95 1.19-.29 12.98-1.89 20.91-2.93 3.93 3.89 17.97 17.71 22.25 21.2.79 2.18 2.9 7.62 5.05 9.89.69-1.74 1.46-3.44 2.31-5.12v.04Zm-51.64-27.76c-.16 0-1.56-.15-5.44-3.78l-4.99-4.66c-1.5-1.39-3.78-3.48-1.66-8.1.65-1.41 1.21-2.79 1.75-4.13 1.64-4.04 2.82-6.74 4.62-7.55l26.97 25.22c-5.22.69-19.43 2.57-21.25 3Zm24.56-6.53-26.97-25.22c.69-1.85 3.31-3.21 7.23-5.12 1.29-.63 2.63-1.28 4-2.02 4.53-2.45 6.76-.28 8.23 1.15l.14.14s.04.04.06.05c.88.79 1.33 1.22 2.14 1.99.59.55 1.36 1.28 2.6 2.45 3.87 3.62 4.12 5.01 4.13 5.17-.31 1.87-1.24 16.15-1.57 21.4h.01Zm21.55 24.73c-4.34-3.84-14.38-13.64-19.85-19.03l.12-.13c.11-.08.21-.17.3-.27s.18-.21.25-.32l.12-.13c5.75 5.09 16.2 14.46 20.32 18.53l-1.26 1.34Z"></path><path class="social-alt_svg__cls-1" d="M180.51 105.31h125.35c1.89 0 3.66-.74 4.99-2.07a6.992 6.992 0 0 0 2.05-5v-.98c-.45-16.49-7.94-31.92-21.1-43.43-13.09-11.46-30.36-17.77-48.62-17.77s-35.54 6.31-48.63 17.77c-13.15 11.51-20.64 26.94-21.09 43.43v1.01c0 3.88 3.16 7.04 7.04 7.04h.01Zm-1.27-7.94c.86-30.63 29.53-55.55 63.95-55.55s63.09 24.92 63.95 55.55v.88a1.263 1.263 0 0 1-1.27 1.27H180.52c-.7 0-1.27-.57-1.27-1.27v-.89ZM382.85 186.7c-1.02-3.33-2.84-6.89-4.87-9.52-1.86-2.42-4.5-3.93-7.43-4.26-3.11-.35-6.35.66-8.9 2.78-.88.69-14.68 11.68-23.68 23.49-.13-.1-.29-.21-.46-.35l-1.03-.94c-3.3-3.01-12.07-11.02-16.77-14.31-.5-.35-1.07-.53-1.64-.55l-7.66-6.99c-1.44 2.91-.36 5.71-2.78 7.82l4.19 6.4c.1.56.35 1.11.76 1.55.14.16.28.3.41.44.07.08.15.16.22.23.34.37.7.74 1.09 1.13l.02.02c.54.55 1.11 1.12 1.76 1.74l.02.02s.03.03.06.07l.03.03c2.9 2.95 9.78 9.56 15.12 13.52 1.03.82 2.07 1.52 3.18 2.12h.02s.1.07.16.1l.05.02c.21.11.44.23.67.34h.02c.11.07.28.15.51.23 2.63 1.17 5.47 1.72 8.84 1.72.4 0 .81 0 1.22-.02 6.66-.25 21.94-5.82 25.67-7.3 3.67-1.46 7.47-2.97 10.8-8.48 1.65-2.73 1.79-6.55.4-11.06Zm-4.57 8.55c-2.48 4.11-4.97 5.1-8.43 6.47-4.5 1.79-18.57 6.76-24.05 6.96-3.2.12-5.75-.3-8.02-1.33l-.22-.1h-.04l-.02-.02c-.15-.07-.32-.16-.49-.25-.03-.02-.06-.03-.09-.05l-.09-.05c-.88-.48-1.71-1.03-2.53-1.69l-.08-.06c-4.73-3.49-11.3-9.7-14.57-13.02-.09-.1-.15-.15-.2-.2l-.03-.03c-.61-.59-1.13-1.11-1.68-1.66l-.02-.02c-.18-.18-.36-.36-.52-.53l.99-1.15c4.65 3.53 12.04 10.28 14.99 12.97.52.48.9.82 1.12 1.02l.11.1c1.02.81 1.78 1.3 2.46 1.59 2.3.99 3.62-.34 3.98-.77l.08-.1c8.64-11.85 23.58-23.7 23.73-23.82l.05-.04c1.55-1.28 3.47-1.91 5.28-1.7 1.63.18 3.05 1.01 4.11 2.39 1.3 1.7 3.06 4.68 4.07 7.99.95 3.1.98 5.63.08 7.12l.03-.02ZM175.96 176.05l-7.66 6.99c-.57.02-1.14.21-1.64.55-4.7 3.29-13.47 11.29-16.77 14.3-.45.41-.82.75-1.04.94-.17.14-.33.25-.46.35-9-11.8-22.8-22.79-23.68-23.49-2.55-2.11-5.8-3.12-8.9-2.78-2.93.33-5.57 1.84-7.43 4.26-2.03 2.63-3.84 6.19-4.87 9.52-1.38 4.5-1.24 8.33.4 11.06 3.32 5.51 7.12 7.02 10.8 8.48 3.73 1.48 19 7.05 25.67 7.3.41.02.82.02 1.22.02 3.37 0 6.21-.55 8.84-1.72.23-.08.4-.17.51-.22h.02c.24-.12.45-.24.67-.35l.05-.02c.05-.03.11-.06.16-.09h.02c1.11-.62 2.15-1.31 3.18-2.13 5.35-3.95 12.23-10.56 15.12-13.52l.03-.03s.05-.05.06-.07l.02-.02c.66-.63 1.22-1.2 1.77-1.75.4-.41.75-.78 1.09-1.15.07-.08.15-.16.22-.23.13-.14.27-.28.41-.43.41-.45.67-.99.77-1.56l3.45-6.88c-2.42-2.11-.62-4.43-2.05-7.34h.01Zm-7.34 14.16c-.55.57-1.07 1.09-1.68 1.68l-.02.02-.2.2c-3.27 3.33-9.84 9.54-14.57 13.02l-.08.06c-.82.66-1.65 1.21-2.53 1.69l-.09.05s-.06.03-.09.05c-.17.09-.34.18-.49.25l-.05.02-.22.1c-2.27 1.03-4.82 1.45-8.02 1.33-5.49-.2-19.55-5.17-24.05-6.96-3.46-1.37-5.95-2.36-8.43-6.47-.9-1.49-.87-4.02.08-7.12 1.01-3.3 2.77-6.29 4.07-7.99 1.06-1.38 2.49-2.21 4.11-2.39.22-.03.45-.04.68-.04 1.6 0 3.25.62 4.6 1.74l.05.04c.15.12 15.09 11.97 23.73 23.82l.08.1c.35.43 1.68 1.76 3.98.77.68-.29 1.44-.78 2.46-1.59l.11-.1c.22-.2.6-.55 1.12-1.02 2.95-2.69 10.34-9.44 14.99-12.97l.99 1.15c-.17.17-.34.35-.52.54v.02Z"></path><path class="social-alt_svg__cls-1" d="M173.46 165.88v14.23c0 13.37 10.88 24.25 24.25 24.25h90.93c13.37 0 24.25-10.88 24.25-24.25v-14.23H173.45h.01ZM307.13 183c-1.39 8.82-9.27 15.6-18.48 15.6h-90.93c-9.21 0-17.09-6.77-18.48-15.6v-11.34h127.9V183h-.01ZM260.06 62.82c0-4.09-3.33-7.42-7.42-7.42s-7.42 3.33-7.42 7.42 3.33 7.42 7.42 7.42 7.42-3.33 7.42-7.42Zm-11.01 0c0-1.98 1.61-3.59 3.59-3.59s3.59 1.61 3.59 3.59-1.61 3.59-3.59 3.59-3.59-1.61-3.59-3.59ZM275.6 63.6c-4.09 0-7.42 3.33-7.42 7.42s3.33 7.42 7.42 7.42 7.42-3.33 7.42-7.42-3.33-7.42-7.42-7.42Zm0 11.01c-1.98 0-3.59-1.61-3.59-3.59s1.61-3.59 3.59-3.59 3.59 1.61 3.59 3.59-1.61 3.59-3.59 3.59ZM258.15 74.61c-4.09 0-7.42 3.33-7.42 7.42s3.33 7.42 7.42 7.42 7.42-3.33 7.42-7.42-3.33-7.42-7.42-7.42Zm0 11.01c-1.98 0-3.59-1.61-3.59-3.59s1.61-3.59 3.59-3.59 3.59 1.61 3.59 3.59-1.61 3.59-3.59 3.59Z"></path></svg>