<svg width="77" height="79" viewBox="0 0 77 79" fill="#fff" xmlns="http://www.w3.org/2000/svg"><path class="letter" d="M20.5136 21.9288H14.8892L8.45182 12.6474L8.35935 12.4274V21.9256H2.33008V0.493164H7.83008L14.3918 9.99142L14.4556 10.2114V0.493164H20.5167V21.9288H20.5136Z"></path><path class="letter" d="M75.7552 5.64882H70.319V21.9288H63.821V5.64882H58.3848V0.493164H75.7584V5.64882H75.7552Z"></path><path d="M22.8561 50.3055H16.0457L14.764 46.4922H7.95352L6.70367 50.3055H0.390625L7.54541 28.8699H15.7013L22.8561 50.3055ZM11.295 35.4635L9.45207 41.9615H13.2654L11.4544 35.4635H11.295Z"></path><path d="M76.3553 50.3055H69.7935V41.9615H64.7303V50.3055H58.1367V28.8699H64.6985V36.7739H69.7616V28.8699H76.3553V50.3055Z"></path><path d="M22.8561 78.6825H16.0457L14.764 74.8691H7.95352L6.70367 78.6825H0.390625L7.54541 57.2468H15.7013L22.8561 78.6825ZM11.295 63.8404L9.45207 70.3384H13.2654L11.4544 63.8404H11.295Z"></path><path class="letter" d="M45.1964 1.39226C46.6216 2.23719 47.7599 3.37226 48.6016 4.79748C49.4465 6.22589 49.8674 7.79139 49.8674 9.50038V12.7494C49.8674 14.4583 49.4465 16.0239 48.6016 17.4523C47.7567 18.8807 46.6216 20.0157 45.1964 20.8575C43.768 21.7024 42.2025 22.1233 40.4935 22.1233H38.7431C37.0341 22.1233 35.4686 21.7024 34.0402 20.8575C32.6117 20.0126 31.4767 18.8775 30.6349 17.4523C29.79 16.027 29.3691 14.4583 29.3691 12.7494V9.50038C29.3691 7.79139 29.79 6.22589 30.6349 4.79748C31.4799 3.37226 32.6149 2.234 34.0402 1.39226C35.4654 0.547334 37.0341 0.126465 38.7431 0.126465H40.4935C42.2025 0.126465 43.768 0.547334 45.1964 1.39226ZM37.337 5.84328C36.7312 6.44907 36.4315 7.1856 36.4315 8.06241V14.0917C36.4315 14.9653 36.7344 15.705 37.337 16.3108C37.9396 16.9166 38.6793 17.2163 39.5561 17.2163H39.7123C40.586 17.2163 41.3257 16.9134 41.9315 16.3108C42.5341 15.7082 42.837 14.9685 42.837 14.0917V8.06241C42.837 7.18878 42.5341 6.44907 41.9315 5.84328C41.3257 5.24067 40.5891 4.93777 39.7123 4.93777H39.5561C38.6825 4.93777 37.9428 5.24067 37.337 5.84328Z"></path><path d="M45.9713 29.4215C46.982 30.005 47.7791 30.8021 48.3626 31.8128C48.9461 32.8235 49.2362 33.9235 49.2362 35.1096V35.7983C49.2362 36.9844 48.9429 38.0844 48.3626 39.0951C47.7791 40.1058 46.982 40.9029 45.9713 41.4864C44.9605 42.0699 43.8637 42.36 42.6745 42.36H37.8313V49.9835H31.2695V28.5479H42.6745C43.8605 28.5479 44.9605 28.8412 45.9713 29.4215ZM37.8313 37.5774H40.7072C41.2907 37.5774 41.7498 37.3861 42.0814 37.0003C42.413 36.6145 42.582 36.1841 42.582 35.7026V35.3264C42.582 34.8481 42.4194 34.4145 42.0974 34.0287C41.7753 33.6429 41.3098 33.4516 40.7072 33.4516H37.8313V37.5774Z"></path><path d="M46.0414 58.4712C47.677 59.5744 48.4933 61.21 48.4933 63.3781V63.7544H42.4927V63.63C42.4927 63.0274 42.2791 62.53 41.8518 62.1474C41.4246 61.7616 40.7741 61.5703 39.9005 61.5703C39.0269 61.5703 38.402 61.6915 37.962 61.9306C37.5251 62.1697 37.3051 62.4886 37.3051 62.8839C37.3051 63.3622 37.5602 63.7448 38.0704 64.0254C38.5805 64.306 39.3266 64.5515 40.3054 64.7587L43.0857 65.3836C46.9596 66.2573 48.8982 68.2691 48.8982 71.4129C48.8982 73.9764 48.0533 75.8607 46.3666 77.0691C44.6799 78.2775 42.346 78.8802 39.368 78.8802C37.7228 78.8802 36.2051 78.6315 34.8214 78.1309C33.4344 77.6303 32.3217 76.8651 31.4767 75.8352C30.6318 74.8054 30.2109 73.5268 30.2109 72.0091V71.6329C30.2109 71.4671 30.2205 71.3428 30.2428 71.2567H36.304C36.2817 71.3204 36.2721 71.4448 36.2721 71.6329C36.2721 72.2802 36.4953 72.8094 36.9448 73.2271C37.3912 73.6448 38.1373 73.852 39.1799 73.852C40.3246 73.852 41.1057 73.7309 41.5234 73.4917C41.9411 73.2526 42.1483 72.9242 42.1483 72.5065C42.1483 72.006 41.855 71.6265 41.2747 71.3651C40.6912 71.1036 39.7762 70.839 38.5263 70.568C36.9417 70.2364 35.6248 69.8633 34.5727 69.4584C33.5205 69.0535 32.6086 68.3871 31.837 67.4593C31.0654 66.5315 30.6796 65.2561 30.6796 63.63C30.6796 62.1729 31.0814 60.9326 31.8817 59.9123C32.6819 58.892 33.7724 58.1204 35.1466 57.6007C36.5208 57.081 38.064 56.8196 39.7698 56.8196C42.3109 56.8196 44.3993 57.3712 46.035 58.4744H46.0414V58.4712Z"></path><path d="M74.4025 62.1825H65.3729V65.3071H74.0582V70.0866H65.3729V73.5555H74.4025L75.0274 78.6793H58.9355V57.2437H75.0274L74.4025 62.1793V62.1825Z"></path></svg>