<?xml version="1.0" encoding="UTF-8"?>
<!-- Generator: Adobe Illustrator 27.0.1, SVG Export Plug-In . SVG Version: 6.00 Build 0)  -->
<svg xmlns="http://www.w3.org/2000/svg" xmlns:xlink="http://www.w3.org/1999/xlink" version="1.1" id="Layer_1" x="0px" y="0px" viewBox="0 0 269.8 269.8" style="enable-background:new 0 0 269.8 269.8;" xml:space="preserve">
<style type="text/css">
	.st0{fill:#FFFFFF;}
</style>
<g>
	<rect x="39.5" y="39.5" transform="matrix(0.7071 -0.7071 0.7071 0.7071 -55.8853 134.919)" width="190.8" height="190.8"></rect>
	<g>
		<path class="st0" d="M167.6,169.6v6.2c0,0.1,0.1,0.2,0.2,0.2h0.6c0.1,0,0.2-0.1,0.2-0.2v-4.5h0l4,4.8h0.2c0.1,0,0.2-0.1,0.2-0.2    v-6.2c0-0.1-0.1-0.2-0.2-0.2h-0.6c-0.1,0-0.2,0.1-0.2,0.2v4.4h0l-4-4.6h-0.2C167.7,169.4,167.6,169.5,167.6,169.6 M151.1,169.7    v0.5c0,0.1,0.1,0.2,0.2,0.2h1.5v5.4c0,0.1,0.1,0.2,0.2,0.2h0.6c0.1,0,0.2-0.1,0.2-0.2v-5.4h1.5c0.1,0,0.2-0.1,0.2-0.2v-0.5    c0-0.1-0.1-0.2-0.2-0.2h-3.9C151.2,169.5,151.1,169.6,151.1,169.7 M142.7,172.7c0,1.8,1.5,3.3,3.3,3.3c1.3,0,2.3-0.6,2.3-0.6    c0,0,0.1-0.1,0.1-0.1c0-0.7,0-1.5,0-2.2c0-0.1-0.1-0.2-0.2-0.2h-1.7c-0.1,0-0.2,0.1-0.2,0.2v0.5c0,0.1,0.1,0.2,0.2,0.2h0.9v1    c-0.1,0-0.6,0.3-1.4,0.3c-1.3,0-2.3-1.1-2.3-2.4c0-1.3,1-2.4,2.3-2.4c0.6,0,1.1,0.3,1.6,0.6c0.1,0.1,0.2,0.1,0.2,0    c0.1-0.1,0.3-0.3,0.4-0.4c0.1-0.1,0.1-0.2,0-0.3c-0.6-0.5-1.3-0.9-2.2-0.9C144.1,169.4,142.7,170.9,142.7,172.7 M134,169.6v6.2    c0,0.1,0.1,0.2,0.2,0.2h0.6c0.1,0,0.2-0.1,0.2-0.2v-4.5h0l4,4.8h0.2c0.1,0,0.2-0.1,0.2-0.2v-6.2c0-0.1-0.1-0.2-0.2-0.2h-0.6    c-0.1,0-0.2,0.1-0.2,0.2v4.4h0l-4-4.6h-0.2C134.1,169.4,134,169.5,134,169.6 M122.1,170.4h1.6c0.6,0,1.1,0.5,1.1,1.1    c0,0.6-0.5,1.1-1.1,1.1h-1.6V170.4z M121.2,169.7v6.1c0,0.1,0.1,0.2,0.2,0.2h0.6c0.1,0,0.2-0.1,0.2-0.2v-2.4h1.4l1.2,2.5    c0,0,0.1,0.1,0.1,0.1h0.7c0.2,0,0.2-0.1,0.2-0.3l-1.3-2.4c0.8-0.3,1.4-1,1.4-1.9c0-1.1-0.9-2-2-2h-2.5    C121.2,169.5,121.2,169.6,121.2,169.7 M94.4,169.7l1.7,6.2c0,0.1,0.1,0.1,0.2,0.1h0.1c0.1,0,0.1,0,0.2-0.1l1.6-4.6h0l1.6,4.6    c0,0.1,0.1,0.1,0.2,0.1h0.1c0.1,0,0.1-0.1,0.2-0.1l1.7-6.2c0-0.1,0-0.2-0.2-0.2h-0.6c-0.1,0-0.1,0.1-0.2,0.1l-1.1,4.2h0l-1.5-4.4    c0-0.1-0.1-0.1-0.2-0.1h-0.2c-0.1,0-0.1,0-0.2,0.1l-1.5,4.4h0l-1.1-4.2c0-0.1-0.1-0.1-0.2-0.1h-0.6    C94.4,169.5,94.4,169.6,94.4,169.7 M62.9,134.7c0-1,0.8-2.5,3.1-2.5c1.6,0,3.5,1.3,3.7,1.4c0.4,0.2,0.7,0.1,1-0.3    c0.2-0.3,0.5-0.7,0.7-1.1c0.3-0.4,0.1-0.8-0.2-0.9c-0.3-0.2-2.3-1.6-5.1-1.6c-4.4,0-6,3-6,5.1c0,3.2,2.2,4.7,5,5.9    c2.7,1.1,4.2,2.2,4.2,3.9c0,1.4-1.2,2.6-3.1,2.6c-2.1,0-4.2-1.8-4.4-1.9c-0.3-0.2-0.7-0.1-0.9,0.2c-0.2,0.4-0.5,0.8-0.7,1.1    c-0.3,0.5-0.1,0.7,0.2,0.9c0.4,0.4,2.6,2.2,5.9,2.2c3.6,0,6.1-2.4,6.1-5.2c0-3.4-2.7-4.9-5.9-6.2    C64.2,137.2,62.9,136.3,62.9,134.7 M92.9,132.4c3.9,0,7.2,3.3,7.2,7.2c0,4-3.2,7.2-7.2,7.2c-3.9,0-7.1-3.2-7.1-7.2    C85.7,135.7,89,132.4,92.9,132.4 M92.9,129.6c-5.5,0-9.9,4.5-9.9,10c0,5.5,4.4,10,9.9,10c0.5,0,1.1,0,1.6-0.1l3,5.1    c0.1,0.2,0.3,0.3,0.4,0.3h2.1c0.4,0,0.7-0.4,0.4-0.8l-3.3-5.3c3.3-1.7,5.6-5.1,5.6-9C102.8,134.1,98.4,129.6,92.9,129.6     M103.9,96.1v-1.6c0-0.3-0.2-0.5-0.5-0.5H91.6c-0.3,0-0.5,0.2-0.5,0.5v1.6c0,0.3,0.2,0.5,0.5,0.5H96V113c0,0.3,0.2,0.5,0.5,0.5    h1.8c0.3,0,0.5-0.2,0.5-0.5V96.7h4.5C103.7,96.7,103.9,96.4,103.9,96.1 M108.3,173.8H106l1.1-2.5h0L108.3,173.8z M110.1,175.7    l-2.8-6.2c0-0.1-0.1-0.1-0.2-0.1h-0.1c0,0-0.1,0-0.2,0.1l-2.8,6.2c-0.1,0.1,0,0.2,0.2,0.2h0.6c0.1,0,0.2-0.1,0.2-0.1    c0.2-0.4,0.4-0.8,0.6-1.3h3l0.6,1.3c0,0.1,0.1,0.1,0.2,0.1h0.6C110.1,176,110.2,175.8,110.1,175.7 M115.7,170.4    c0.6,0,1.1,0.5,1.1,1.1c0,0.6-0.5,1.1-1.1,1.1H114v-2.2H115.7z M115.7,169.5h-2.5c-0.1,0-0.2,0.1-0.2,0.2v6.1    c0,0.1,0.1,0.2,0.2,0.2h0.6c0.1,0,0.2-0.1,0.2-0.2v-2.4h1.4l1.2,2.5c0,0,0.1,0.1,0.1,0.1h0.7c0.2,0,0.2-0.1,0.2-0.3l-1.3-2.4    c0.8-0.3,1.4-1,1.4-1.9C117.7,170.4,116.8,169.5,115.7,169.5 M118,113V94.6c0-0.3-0.2-0.5-0.5-0.5h-1.8c-0.3,0-0.5,0.2-0.5,0.5    V113c0,0.3,0.2,0.5,0.5,0.5h1.8C117.7,113.5,118,113.2,118,113 M129.7,142.1v-11.7c0-0.3-0.2-0.5-0.5-0.5h-1.8    c-0.3,0-0.5,0.2-0.5,0.5V142c0,2.7-1.8,4.9-4.6,4.9c-2.8,0-4.6-2.2-4.6-4.9v-11.5c0-0.3-0.2-0.5-0.5-0.5h-1.8    c-0.3,0-0.5,0.2-0.5,0.5v11.7c0,4.2,3.1,7.5,7.5,7.5C126.5,149.6,129.7,146.3,129.7,142.1 M130.2,175.8v-6.1    c0-0.1-0.1-0.2-0.2-0.2h-0.6c-0.1,0-0.2,0.1-0.2,0.2v6.1c0,0.1,0.1,0.2,0.2,0.2h0.6C130.1,176,130.2,175.9,130.2,175.8     M151.4,112.8L148,94.2c-0.1-0.2-0.3-0.4-0.5-0.4h-0.4c-0.2,0-0.4,0.1-0.5,0.3l-5.7,14.2h-0.1L135,94.1c-0.1-0.2-0.3-0.3-0.5-0.3    h-0.4c-0.2,0-0.4,0.2-0.5,0.4l-3.4,18.6c-0.1,0.4,0.1,0.6,0.5,0.6h1.8c0.2,0,0.5-0.2,0.5-0.4l2-12.4h0.1l5,12.8    c0.1,0.2,0.2,0.3,0.5,0.3h0.5c0.2,0,0.4-0.1,0.5-0.3l4.9-12.8h0.1l2,12.4c0.1,0.2,0.3,0.4,0.5,0.4h1.8    C151.3,113.5,151.5,113.2,151.4,112.8 M152.6,142.7h-6.9l3.4-7.6h0.1L152.6,142.7z M158.2,148.6l-8.4-18.7    c-0.1-0.2-0.3-0.3-0.5-0.3h-0.3c-0.1,0-0.4,0.1-0.5,0.3l-8.4,18.7c-0.2,0.4,0.1,0.7,0.5,0.7h1.7c0.3,0,0.6-0.2,0.6-0.4    c0.6-1.3,1.1-2.5,1.7-3.8h9l1.7,3.8c0.1,0.2,0.3,0.4,0.6,0.4h1.7C158.1,149.4,158.4,149,158.2,148.6 M163.4,172.7    c0,1.3-1.1,2.4-2.4,2.4c-1.3,0-2.4-1.1-2.4-2.4c0-1.3,1.1-2.4,2.4-2.4C162.3,170.3,163.4,171.4,163.4,172.7 M164.3,172.7    c0-1.9-1.5-3.3-3.3-3.3c-1.8,0-3.3,1.5-3.3,3.3c0,1.8,1.5,3.3,3.3,3.3C162.8,176.1,164.3,174.6,164.3,172.7 M175.7,113v-1.5    c0-0.3-0.2-0.5-0.5-0.5h-8.7v-6h7.3c0.3,0,0.5-0.2,0.5-0.5v-1.6c0-0.3-0.2-0.5-0.5-0.5h-7.3v-5.7h8.7c0.3,0,0.5-0.2,0.5-0.5v-1.6    c0-0.3-0.2-0.5-0.5-0.5h-11c-0.3,0-0.5,0.2-0.5,0.5V113c0,0.3,0.2,0.5,0.5,0.5h11C175.5,113.5,175.7,113.2,175.7,113 M180.3,135.9    c0,1.9-1.6,3.4-3.4,3.4h-4.9v-6.7h4.9C178.8,132.6,180.3,134.1,180.3,135.9 M183.2,135.9c0-3.3-2.7-5.9-6-5.9h-7.5    c-0.3,0-0.5,0.2-0.5,0.5v18.4c0,0.3,0.2,0.5,0.5,0.5h1.8c0.3,0,0.5-0.2,0.5-0.5v-7.1h4.2l3.7,7.4c0.1,0.1,0.2,0.2,0.4,0.2h2.1    c0.5,0,0.7-0.4,0.5-0.8l-3.8-7C181.5,140.5,183.2,138.4,183.2,135.9 M198.5,146.8v-6h7.3c0.3,0,0.5-0.2,0.5-0.5v-1.6    c0-0.3-0.2-0.5-0.5-0.5h-7.3v-5.7h8.7c0.3,0,0.5-0.2,0.5-0.5v-1.6c0-0.3-0.2-0.5-0.5-0.5h-11c-0.3,0-0.5,0.2-0.5,0.5v18.4    c0,0.3,0.2,0.5,0.5,0.5h11c0.3,0,0.5-0.2,0.5-0.5v-1.5c0-0.3-0.2-0.5-0.5-0.5H198.5z"></path>
	</g>
</g>
</svg>
